<svg width="30" height="30" viewBox="0 0 30 30" fill="none" xmlns="http://www.w3.org/2000/svg">
<path d="M5.46612 28C3.55187 28 2 26.5845 2 24.8367V12.1229C2 11.1624 2.47938 10.2524 3.3 9.65295L12.8339 2.69372C13.443 2.24535 14.2091 2 15 2C15.7909 2 16.557 2.24535 17.1661 2.69372L26.6984 9.65295C27.5206 10.2524 28 11.1624 28 12.1229V24.8367C28 26.5845 26.4481 28 24.5339 28H5.46612Z" stroke="white" stroke-width="3" stroke-linecap="round" stroke-linejoin="round"/>
<path d="M11 26V18.6667C11 17.9594 11.295 17.2811 11.8201 16.781C12.3452 16.281 13.0574 16 13.8 16H15.2C15.9426 16 16.6548 16.281 17.1799 16.781C17.705 17.2811 18 17.9594 18 18.6667V26" stroke="white" stroke-width="3" stroke-linecap="round" stroke-linejoin="round"/>
</svg>
